<svg width="15" height="18" viewBox="0 0 15 18" fill="none" xmlns="http://www.w3.org/2000/svg">
<path d="M7.5 9.9C7.25136 9.9 7.0129 9.99482 6.83709 10.1636C6.66127 10.3324 6.5625 10.5613 6.5625 10.8V13.5C6.5625 13.7387 6.66127 13.9676 6.83709 14.1364C7.0129 14.3052 7.25136 14.4 7.5 14.4C7.74864 14.4 7.9871 14.3052 8.16291 14.1364C8.33873 13.9676 8.4375 13.7387 8.4375 13.5V10.8C8.4375 10.5613 8.33873 10.3324 8.16291 10.1636C7.9871 9.99482 7.74864 9.9 7.5 9.9ZM12.1875 6.3V4.5C12.1875 3.30653 11.6936 2.16193 10.8146 1.31802C9.93549 0.474106 8.7432 0 7.5 0C6.2568 0 5.06451 0.474106 4.18544 1.31802C3.30636 2.16193 2.8125 3.30653 2.8125 4.5V6.3C2.06658 6.3 1.35121 6.58446 0.823762 7.09081C0.296316 7.59716 0 8.28392 0 9V15.3C0 16.0161 0.296316 16.7028 0.823762 17.2092C1.35121 17.7155 2.06658 18 2.8125 18H12.1875C12.9334 18 13.6488 17.7155 14.1762 17.2092C14.7037 16.7028 15 16.0161 15 15.3V9C15 8.28392 14.7037 7.59716 14.1762 7.09081C13.6488 6.58446 12.9334 6.3 12.1875 6.3ZM4.6875 4.5C4.6875 3.78392 4.98382 3.09716 5.51126 2.59081C6.03871 2.08446 6.75408 1.8 7.5 1.8C8.24592 1.8 8.96129 2.08446 9.48874 2.59081C10.0162 3.09716 10.3125 3.78392 10.3125 4.5V6.3H4.6875V4.5ZM13.125 15.3C13.125 15.5387 13.0262 15.7676 12.8504 15.9364C12.6746 16.1052 12.4361 16.2 12.1875 16.2H2.8125C2.56386 16.2 2.3254 16.1052 2.14959 15.9364C1.97377 15.7676 1.875 15.5387 1.875 15.3V9C1.875 8.7613 1.97377 8.53239 2.14959 8.3636C2.3254 8.19482 2.56386 8.1 2.8125 8.1H12.1875C12.4361 8.1 12.6746 8.19482 12.8504 8.3636C13.0262 8.53239 13.125 8.7613 13.125 9V15.3Z" fill="#FE0000"/>
</svg>
